<?xml version="1.0" standalone="no"?>
<!DOCTYPE svg PUBLIC "-//W3C//DTD SVG 20010904//EN"
 "http://www.w3.org/TR/2001/REC-SVG-20010904/DTD/svg10.dtd">
<svg version="1.0" xmlns="http://www.w3.org/2000/svg"
 width="1280.000000pt" height="1031.000000pt" viewBox="0 0 1280.000000 1031.000000"
 preserveAspectRatio="xMidYMid meet">
<metadata>
Created by potrace 1.16, written by Peter Selinger 2001-2019
</metadata>
<g transform="translate(0.000000,1031.000000) scale(0.100000,-0.100000)"
fill="#000000" stroke="none">
<path d="M8020 8669 c-69 -22 -291 -92 -495 -155 -653 -203 -641 -199 -705
-263 -38 -39 -61 -73 -75 -111 -36 -100 -29 -135 108 -575 l125 -400 -116 -6
c-123 -6 -152 -15 -211 -65 -18 -15 -42 -45 -54 -68 l-22 -41 -3 -807 -2 -808
-105 0 -105 0 0 -108 c0 -131 15 -188 70 -264 47 -66 126 -118 210 -139 46
-12 302 -14 1510 -11 1315 2 1460 4 1505 19 83 27 142 70 193 142 41 57 60
122 67 234 7 105 2 126 -28 125 -12 0 -59 0 -104 1 l-83 1 0 300 0 300 348 0
349 0 62 31 c71 36 123 97 140 166 6 23 11 134 11 247 l0 205 56 7 c84 10 183
64 244 132 73 82 95 143 95 267 0 92 -2 105 -32 165 -58 118 -162 197 -291
220 l-69 13 -6 77 c-7 114 -54 187 -151 238 l-51 27 -707 3 -708 3 -56 177
c-30 97 -74 235 -96 305 -63 200 -136 277 -355 377 -209 95 -272 100 -463 39z
m327 -75 c114 -42 260 -123 297 -165 43 -47 44 -57 9 -65 -16 -3 -57 -14 -93
-25 -160 -45 -182 -49 -222 -39 -46 13 -54 27 -77 133 -10 45 -28 105 -39 133
-12 29 -19 54 -16 57 9 9 79 -5 141 -29z m-211 -51 c14 -32 34 -94 43 -139 21
-99 45 -142 97 -171 59 -34 124 -30 289 17 76 22 146 40 155 40 11 0 23 -21
37 -67 12 -38 46 -147 76 -243 30 -96 58 -184 61 -196 5 -17 0 -23 -32 -32
-58 -17 -117 -65 -149 -119 -28 -48 -28 -50 -33 -258 l-5 -210 -802 -3 -802
-2 -36 117 c-20 65 -59 190 -87 278 -28 88 -59 187 -69 220 -10 33 -30 98 -44
145 -31 101 -29 160 10 226 14 25 44 56 66 71 26 17 184 71 432 148 216 67
439 137 497 155 58 18 137 43 175 56 39 12 76 23 83 23 7 1 25 -25 38 -56z
m2302 -896 c52 -34 81 -90 89 -171 l6 -64 -39 -12 c-156 -51 -263 -188 -272
-351 -3 -44 1 -99 7 -126 l12 -48 -60 -56 c-73 -67 -80 -101 -32 -150 36 -36
62 -37 170 -5 45 13 84 20 86 16 3 -4 32 -18 66 -30 l61 -23 -4 -216 c-3 -209
-4 -217 -28 -259 -15 -27 -42 -54 -70 -70 -44 -26 -50 -27 -237 -31 l-191 -3
-4 143 c-2 118 -6 149 -21 171 -26 37 -85 58 -167 58 -60 0 -70 2 -70 18 0 12
20 26 66 46 110 48 192 152 202 256 4 40 9 49 37 64 52 29 72 87 52 156 -6 20
0 36 34 80 54 71 84 132 98 198 12 58 15 162 5 210 l-6 31 -71 0 c-63 0 -78 4
-156 44 -152 79 -297 113 -442 105 -162 -9 -269 -90 -308 -235 -6 -23 -23 -61
-36 -85 -31 -54 -33 -140 -6 -227 l19 -62 -23 -15 c-13 -8 -31 -31 -40 -51
-24 -50 -8 -102 45 -144 29 -23 40 -40 40 -59 0 -109 103 -232 232 -278 33
-11 48 -22 48 -34 0 -16 -10 -18 -72 -18 -85 0 -147 -24 -175 -66 -15 -23 -19
-53 -21 -167 l-4 -139 -176 4 c-204 4 -235 13 -287 87 l-30 43 -3 674 c-2 648
-2 675 17 711 10 21 30 49 44 61 55 52 47 52 838 49 l735 -2 42 -28z m-638
-112 c47 -14 129 -48 184 -75 74 -38 109 -50 143 -50 l45 0 -4 -87 c-3 -69 -9
-100 -29 -143 -26 -55 -107 -170 -119 -170 -3 0 -7 22 -9 49 -2 42 1 50 24 65
30 20 33 51 5 66 -17 9 -29 5 -68 -22 l-47 -32 -155 -1 c-165 0 -236 13 -308
57 l-33 20 -6 -23 c-4 -13 -24 -59 -45 -101 -43 -85 -67 -99 -86 -50 -40 101
-43 203 -8 254 13 19 26 52 30 73 19 102 91 173 196 196 59 13 200 0 290 -26z
m948 -234 c167 -86 224 -283 129 -443 -56 -92 -157 -148 -268 -148 -52 0 -139
29 -178 59 -24 18 -25 18 -84 -5 -33 -13 -76 -27 -96 -30 l-36 -7 63 64 c48
49 61 69 56 84 -29 94 -35 126 -30 172 10 111 75 203 181 255 54 26 67 29 140
25 57 -2 92 -10 123 -26z m-1227 -208 c35 -13 84 -17 229 -19 l185 -2 8 -44
c4 -23 6 -106 5 -183 -3 -132 -5 -143 -30 -186 -33 -56 -77 -95 -138 -123 -65
-29 -235 -29 -301 0 -65 30 -119 81 -145 139 -20 43 -24 66 -24 158 0 99 1
107 19 107 32 0 75 44 107 109 16 33 32 60 35 60 4 1 26 -7 50 -16z m-851
-118 l0 -95 -950 0 -950 0 0 -157 c-1 -87 -2 -426 -3 -753 l-2 -595 -52 -3
-53 -3 0 793 c0 886 -4 830 70 882 l35 25 953 1 952 0 0 -95z m-109 -202 c5
-98 5 -160 2 -170 -4 -10 -185 -13 -859 -13 l-854 0 0 94 c0 66 4 96 13 99 6
3 391 6 855 6 795 1 842 0 843 -16z m109 -403 l0 -140 -201 -2 c-196 -3 -202
-4 -210 -24 -5 -14 -2 -29 7 -43 15 -20 23 -21 219 -21 l203 0 21 -32 c30 -49
81 -94 131 -117 l45 -21 -301 0 c-229 0 -304 -3 -311 -12 -21 -28 -22 -49 -3
-68 19 -19 35 -20 402 -20 341 0 383 2 400 17 22 20 23 41 1 65 -16 17 -10 18
159 18 l175 0 6 -107 c4 -58 7 -193 7 -300 l0 -193 -877 -1 c-1129 -1 -1686 1
-1690 5 -2 2 -2 119 -1 261 l3 259 51 -80 c28 -44 74 -105 103 -136 31 -34 51
-65 51 -79 0 -66 75 -129 153 -129 30 0 65 -9 95 -24 26 -13 78 -29 115 -37
82 -16 174 -3 263 36 31 14 74 25 96 25 22 0 57 9 78 21 37 21 80 81 80 112 0
8 33 56 74 106 83 101 138 204 140 260 0 23 -8 48 -22 68 -24 34 -108 87 -156
99 -16 4 -31 14 -33 23 -3 11 -18 17 -54 19 -76 4 -92 -4 -86 -41 2 -18 1 -40
-4 -49 -9 -16 -15 -17 -56 -2 -10 4 -27 8 -38 9 -11 2 -47 14 -80 28 -33 15
-62 22 -63 16 -2 -5 -8 -6 -14 -3 -5 4 -21 1 -34 -5 -82 -38 -133 -51 -203
-51 l-54 0 6 40 c8 62 5 62 -201 45 -44 -3 -61 -1 -56 6 4 8 0 7 -15 0 -28
-15 -27 -18 9 -16 43 3 37 -10 -13 -29 -24 -9 -62 -32 -85 -51 -22 -19 -43
-35 -46 -35 -8 0 -8 455 1 463 3 4 413 7 910 7 l903 0 0 -140z m818 -172 l-3
-163 -70 0 -70 0 -3 136 c-2 125 -1 138 18 162 19 23 29 27 76 27 l54 0 -2
-162z m414 132 c16 -20 18 -39 16 -159 l-3 -136 -70 0 -70 0 -3 164 -3 164 57
-5 c44 -4 62 -10 76 -28z m-192 -173 l0 -128 -72 3 -73 3 -3 114 c-1 63 -1
120 1 125 3 6 35 11 76 11 l71 0 0 -128z m-100 -487 l0 -300 -50 0 -50 0 0
294 0 295 48 4 c26 2 48 4 50 5 1 1 2 -133 2 -298z m205 -475 c-1 -70 -3 -78
-40 -131 -28 -40 -57 -67 -95 -88 l-55 -31 -754 0 -754 0 -12 48 c-15 59 -70
119 -124 136 -26 7 -164 11 -422 11 -350 0 -388 -2 -424 -19 -54 -24 -102 -81
-116 -137 l-12 -46 -181 4 c-180 3 -181 3 -235 33 -62 34 -115 99 -130 162
-11 41 -15 126 -7 134 2 2 760 3 1683 2 l1678 -3 0 -75z"/>
<path d="M7815 7921 c-116 -36 -275 -86 -354 -111 -116 -36 -146 -49 -154 -68
-9 -19 -7 -27 11 -44 l22 -22 352 109 c194 59 365 114 381 122 47 24 31 84
-22 82 -15 -1 -121 -31 -236 -68z"/>
<path d="M8120 7678 c-14 -5 -83 -28 -155 -50 -71 -22 -159 -49 -195 -60 -36
-11 -94 -29 -130 -40 -36 -11 -96 -29 -135 -40 -80 -23 -105 -41 -105 -75 0
-46 34 -47 160 -8 63 20 142 45 175 55 441 135 465 144 465 177 0 14 -35 53
-47 52 -5 0 -19 -5 -33 -11z"/>
<path d="M7163 6344 c-41 -14 -66 -36 -92 -79 -13 -23 -15 -32 -5 -32 7 0 11
4 8 9 -3 4 4 8 16 8 14 0 19 -4 14 -12 -4 -7 2 -5 14 6 16 14 32 17 66 14 51
-5 74 10 61 39 -5 10 -7 22 -6 26 1 5 -3 6 -8 3 -5 -4 -12 -2 -15 3 -11 16 42
18 60 2 10 -10 14 -11 9 -2 -6 11 1 12 36 6 24 -4 62 -11 84 -17 22 -6 40 -9
40 -9 0 1 17 -5 39 -14 37 -16 38 -16 31 2 -4 10 -8 24 -8 31 0 6 -4 12 -9 12
-5 0 -6 5 -2 11 9 15 -287 8 -333 -7z"/>
<path d="M7568 6330 c-3 -17 -3 -32 -1 -34 2 -2 27 5 56 14 29 10 72 21 96 25
35 6 42 5 35 -6 -6 -12 -5 -12 8 -1 11 9 18 10 23 2 3 -5 11 -10 16 -10 6 0 7
5 4 10 -3 6 -1 10 4 10 16 0 13 -20 -4 -26 -38 -15 2 -57 47 -51 13 2 29 -3
36 -12 8 -9 11 -10 7 -3 -8 15 0 15 25 2 37 -20 -18 57 -58 82 -33 20 -51 23
-163 25 l-127 3 -4 -30z"/>
<path d="M8266 5679 c-15 -22 -11 -48 8 -61 17 -12 514 -10 537 2 11 6 19 21
19 35 0 14 -8 29 -19 35 -12 6 -118 10 -275 10 -248 0 -255 -1 -270 -21z"/>
<path d="M2357 4223 c-3 -5 -8 -27 -12 -50 -5 -33 -3 -43 7 -45 44 -5 55 -6
73 -7 19 -1 31 -42 125 -427 58 -235 110 -433 115 -441 12 -16 90 -24 122 -12
26 10 59 69 383 694 46 88 87 166 93 173 5 6 28 12 51 12 56 0 65 8 72 63 l7
47 -174 -2 -174 -3 -6 -43 c-6 -49 4 -59 60 -60 18 0 35 -2 36 -4 2 -2 -50
-107 -116 -233 -66 -127 -152 -292 -191 -368 -39 -76 -73 -136 -75 -134 -2 3
-33 125 -68 273 -36 148 -76 313 -89 367 -16 66 -20 97 -12 98 6 1 27 0 46 0
48 -2 58 7 62 59 l3 45 -167 3 c-91 1 -169 -1 -171 -5z"/>
<path d="M3796 4214 c-3 -9 -6 -29 -6 -45 0 -28 2 -29 46 -29 l46 0 -5 -32
c-3 -18 -29 -200 -58 -405 l-53 -372 -45 -3 c-44 -3 -46 -4 -54 -42 -7 -29 -6
-40 4 -47 17 -11 260 -12 277 -1 7 5 13 26 15 48 l2 39 -43 3 c-41 3 -43 5
-38 30 4 15 24 155 46 312 22 157 47 339 57 406 9 66 14 128 10 137 -9 24
-192 25 -201 1z"/>
<path d="M4207 4223 c-3 -5 -7 -24 -9 -43 -3 -35 -3 -35 42 -40 38 -4 45 -8
43 -25 -9 -72 -104 -735 -109 -757 -5 -25 -10 -28 -44 -28 -44 0 -63 -22 -58
-68 l3 -27 125 -3 c167 -4 170 -3 170 53 l0 45 -40 0 c-48 0 -46 -11 -20 163
53 352 101 718 95 727 -7 12 -191 14 -198 3z"/>
<path d="M3505 4140 c-27 -11 -52 -40 -60 -70 -9 -37 27 -80 66 -80 38 0 89
48 89 83 0 47 -53 85 -95 67z"/>
<path d="M4783 3920 c-75 -14 -156 -47 -182 -74 l-23 -25 22 -30 c12 -17 23
-31 25 -31 3 0 30 13 62 29 41 21 76 30 118 32 116 5 134 2 171 -35 30 -30 34
-40 34 -88 l0 -55 -122 -6 c-201 -11 -306 -46 -365 -124 -25 -33 -28 -45 -28
-114 0 -73 2 -80 30 -109 38 -40 53 -48 114 -60 61 -11 158 3 213 31 22 11 60
39 85 62 l44 41 -6 -50 c-9 -71 0 -79 95 -81 88 -2 105 9 98 65 -3 24 -8 27
-45 30 -25 2 -43 8 -43 15 0 7 12 84 25 172 28 180 30 213 14 270 -14 51 -73
110 -124 124 -59 16 -153 21 -212 11z m205 -421 c-4 -41 -12 -57 -43 -89 -66
-67 -186 -105 -259 -80 -74 24 -99 101 -50 159 37 44 97 59 238 60 l119 1 -5
-51z"/>
<path d="M5733 3920 c-76 -16 -125 -53 -172 -130 l-22 -35 7 74 c5 57 4 75 -7
82 -17 11 -150 12 -167 1 -7 -5 -13 -26 -15 -48 l-2 -39 43 -3 c23 -2 42 -7
42 -12 0 -14 -60 -433 -65 -457 -5 -19 -12 -23 -45 -23 -45 0 -63 -22 -58 -68
l3 -27 130 -3 c72 -1 136 2 143 6 7 5 13 26 15 48 2 38 1 39 -35 42 -21 2 -38
6 -38 10 0 4 9 70 20 146 22 152 41 205 99 269 46 51 84 69 144 69 42 0 54 -4
80 -30 41 -41 43 -89 14 -292 l-23 -165 -44 -5 c-42 -5 -45 -7 -53 -44 -7 -29
-6 -40 4 -47 17 -11 260 -12 277 -1 7 5 13 26 15 48 l2 39 -44 3 -43 3 5 37
c4 20 14 96 23 167 17 138 26 164 76 220 42 48 82 67 141 67 41 0 54 -4 79
-30 42 -42 44 -84 14 -297 -33 -230 -33 -243 0 -255 31 -12 144 -13 163 -1 7
5 14 26 15 47 l1 39 -43 3 -44 3 7 52 c3 29 15 112 26 185 23 165 23 196 0
247 -25 56 -71 91 -134 105 -107 22 -218 -26 -264 -114 l-15 -30 -15 35 c-38
90 -130 132 -240 109z"/>
<path d="M3350 3901 c-5 -11 -10 -33 -10 -50 0 -30 1 -31 46 -31 l46 0 -6 -32
c-3 -18 -17 -116 -31 -218 -36 -263 -29 -240 -81 -240 -38 0 -44 -3 -50 -24
-3 -13 -4 -35 -2 -47 3 -24 5 -24 137 -27 90 -2 138 1 147 9 8 6 14 29 14 50
0 39 0 39 -40 39 -30 0 -40 4 -40 16 0 16 53 403 69 504 6 39 6 57 -3 62 -6 4
-50 8 -98 8 -76 0 -89 -2 -98 -19z"/>
<path d="M5450 530 c0 -110 0 -110 24 -110 19 0 25 6 28 28 3 24 8 28 52 33
82 9 115 81 61 134 -21 22 -33 25 -95 25 l-70 0 0 -110z"/>
<path d="M5830 529 l0 -110 28 3 c22 2 28 9 30 33 6 61 11 62 55 12 35 -40 47
-48 70 -45 l28 3 -47 63 -47 63 44 45 43 44 -39 0 c-30 0 -46 -7 -72 -32 l-33
-32 0 32 c0 29 -3 32 -30 32 l-30 0 0 -111z"/>
<path d="M6090 615 c0 -21 5 -25 30 -25 l30 0 0 -86 0 -85 28 3 c27 3 27 4 30
86 l3 82 29 0 c25 0 30 4 30 25 0 25 -1 25 -90 25 -89 0 -90 0 -90 -25z"/>
<path d="M6360 613 c-64 -57 -43 -159 38 -183 113 -34 191 108 101 184 -43 36
-98 35 -139 -1z"/>
<path d="M6634 606 c-27 -27 -34 -42 -34 -74 0 -75 72 -126 144 -102 51 17 62
34 32 54 -15 10 -27 12 -31 6 -13 -21 -64 -11 -81 15 -32 49 20 102 72 74 21
-11 27 -10 42 5 16 16 16 18 -7 37 -14 12 -38 19 -63 19 -32 0 -47 -7 -74 -34z"/>
<path d="M6860 529 l0 -110 28 3 c23 3 27 8 30 41 3 36 4 37 43 37 39 0 39 0
39 -40 0 -36 3 -40 25 -40 l25 0 0 110 0 110 -25 0 c-22 0 -25 -4 -25 -40 l0
-40 -40 0 -40 0 0 40 c0 38 -2 40 -30 40 l-30 0 0 -111z"/>
<path d="M7157 548 c-19 -51 -39 -101 -42 -110 -6 -15 -2 -18 24 -18 21 0 31
5 31 15 0 22 105 21 118 -1 5 -10 19 -14 34 -12 l26 3 -40 108 -40 107 -38 0
-37 0 -36 -92z"/>
<path d="M7410 530 c0 -110 0 -110 24 -110 19 0 25 6 28 27 4 38 29 39 53 3
16 -23 27 -30 53 -30 34 0 35 6 4 42 -13 15 -12 20 7 44 28 36 27 79 -4 109
-21 22 -33 25 -95 25 l-70 0 0 -110z"/>
<path d="M7660 616 c0 -21 6 -25 33 -28 l32 -3 3 -82 c3 -81 3 -83 27 -83 25
0 25 1 25 85 l0 85 30 0 c25 0 30 4 30 25 0 25 -1 25 -90 25 -89 0 -90 0 -90
-24z"/>
</g>
</svg>
