<?xml version="1.0" standalone="no"?>
<!DOCTYPE svg PUBLIC "-//W3C//DTD SVG 20010904//EN"
 "http://www.w3.org/TR/2001/REC-SVG-20010904/DTD/svg10.dtd">
<svg version="1.0" xmlns="http://www.w3.org/2000/svg"
 width="604.000000pt" height="391.000000pt" viewBox="0 0 604.000000 391.000000"
 preserveAspectRatio="xMidYMid meet">
<metadata>
Created by potrace 1.16, written by Peter Selinger 2001-2019
</metadata>
<g transform="translate(0.000000,391.000000) scale(0.100000,-0.100000)"
fill="#000000" stroke="none">
<path d="M3920 3369 c-52 -17 -174 -55 -270 -86 -96 -30 -220 -69 -274 -86
-110 -34 -147 -59 -178 -120 -29 -58 -21 -104 60 -362 l70 -220 -78 -5 c-66
-4 -83 -9 -105 -30 -56 -52 -55 -41 -55 -544 l0 -465 -62 -3 -63 -3 3 -74 c3
-91 28 -142 90 -185 42 -30 48 -31 195 -38 84 -4 481 -5 882 -2 815 6 787 3
849 75 38 45 56 102 56 178 l0 51 -65 0 -65 0 0 175 0 175 202 0 c184 0 206 2
244 21 73 35 84 64 84 223 0 125 1 136 18 136 78 0 179 77 206 157 21 61 20
91 -4 156 -30 81 -90 131 -173 145 -39 7 -42 10 -45 42 -1 19 -5 45 -7 57 -7
29 -53 82 -84 96 -18 8 -157 14 -440 17 l-413 5 -53 168 c-74 234 -96 263
-253 332 -114 50 -155 52 -272 14z m256 -61 c71 -29 154 -91 142 -104 -4 -3
-45 -16 -93 -29 -108 -30 -130 -24 -145 37 -9 40 -26 94 -38 127 -8 20 38 10
134 -31z m-164 -38 c9 -30 19 -68 23 -83 3 -16 17 -40 30 -53 31 -31 90 -32
190 -3 41 12 80 19 87 16 8 -2 33 -66 56 -141 24 -75 45 -142 47 -149 2 -7
-14 -21 -37 -32 -72 -34 -82 -58 -88 -203 l-5 -127 -467 -3 -466 -2 -11 32
c-87 274 -141 458 -141 481 0 33 20 75 48 100 23 21 665 227 697 224 15 -2 24
-16 37 -57z m1349 -508 c23 -25 29 -42 29 -76 0 -42 -2 -45 -45 -66 -89 -43
-128 -115 -124 -228 4 -73 3 -74 -29 -100 -37 -31 -41 -61 -11 -88 19 -17 24
-17 77 -3 50 13 63 13 95 0 l37 -14 0 -136 c-1 -190 -11 -201 -188 -201 l-110
0 -3 86 c-5 104 -21 124 -100 124 -60 0 -72 16 -26 35 70 29 127 95 127 147 0
14 13 35 31 51 28 24 31 32 26 63 -5 29 -1 43 17 68 52 69 78 167 62 230 -5
22 -12 26 -45 26 -22 0 -66 13 -102 30 -120 55 -221 72 -304 49 -49 -14 -110
-75 -120 -121 -4 -18 -14 -42 -21 -53 -15 -21 -18 -117 -5 -150 6 -14 2 -28
-16 -49 -27 -32 -24 -60 11 -92 13 -11 26 -36 30 -54 11 -58 50 -106 110 -135
31 -15 53 -31 50 -36 -3 -5 -27 -9 -53 -9 -34 0 -56 -6 -75 -21 -24 -19 -26
-26 -26 -105 l0 -84 -106 0 c-81 0 -113 4 -134 17 -54 31 -55 38 -58 433 -2
201 0 379 3 397 7 40 48 90 78 96 12 3 217 4 455 3 l434 -1 29 -33z m-400 -48
c30 -9 80 -29 111 -45 32 -16 71 -29 88 -29 29 0 30 -2 30 -42 0 -44 -32 -123
-68 -167 l-20 -24 -7 22 c-4 15 -1 29 10 41 10 11 15 26 11 36 -5 14 -10 14
-42 -5 -49 -29 -191 -30 -266 -1 -29 11 -54 16 -56 11 -10 -30 -49 -96 -58
-98 -30 -9 -46 128 -19 163 8 10 15 28 15 39 0 30 35 77 72 97 42 22 128 23
199 2z m594 -158 c39 -30 74 -94 75 -135 1 -79 -60 -162 -132 -182 -48 -13
-112 -5 -147 18 -24 15 -50 12 -120 -15 -9 -3 0 13 20 36 36 42 36 43 23 83
-27 77 13 175 87 212 53 27 146 19 194 -17z m-602 -111 l97 0 6 -32 c3 -18 5
-68 3 -112 -4 -88 -19 -118 -80 -159 -30 -21 -43 -23 -116 -20 -64 2 -88 8
-110 24 -43 32 -65 78 -70 148 -5 62 -5 64 23 77 16 8 38 31 49 52 19 37 21
37 60 30 22 -4 84 -8 138 -8z m-643 -60 l0 -55 -555 0 -555 0 0 -440 0 -440
-30 0 -30 0 0 464 0 464 26 31 26 31 559 0 559 0 0 -55z m-60 -165 l0 -60
-500 0 -500 0 0 53 c0 30 3 57 7 60 3 4 228 7 500 7 l493 0 0 -60z m-674 -111
c3 -5 13 -5 22 -1 21 11 567 16 654 7 l63 -7 -2 -66 c-1 -37 -2 -72 -2 -79 -1
-9 -35 -13 -118 -15 -110 -3 -118 -4 -118 -23 0 -19 8 -20 125 -23 l125 -3 17
-29 c9 -16 34 -38 55 -49 l38 -20 -171 -1 c-140 0 -174 -3 -184 -15 -10 -12
-10 -18 0 -30 10 -13 49 -15 235 -15 233 0 254 4 239 44 -5 14 6 16 95 16
l101 0 0 -175 0 -175 -750 0 -750 0 0 150 c0 83 3 150 8 150 4 0 17 -18 30
-40 12 -22 36 -55 52 -73 16 -18 32 -45 35 -59 9 -37 38 -60 88 -69 23 -4 70
-16 105 -26 59 -17 65 -17 125 0 34 10 81 22 104 26 50 9 78 32 88 68 3 14 23
46 44 72 46 55 81 121 81 154 0 27 -41 68 -87 87 -18 7 -33 17 -33 22 0 5 -19
8 -42 6 -36 -3 -43 -6 -43 -25 0 -34 -9 -35 -75 -12 l-63 22 -66 -22 c-92 -30
-113 -28 -109 7 2 22 -1 28 -21 30 -49 7 -112 -10 -162 -44 -28 -19 -53 -34
-55 -34 -7 0 -4 266 3 274 10 10 312 6 319 -5z m1284 -484 l0 -175 -30 0 -30
0 0 175 0 175 30 0 30 0 0 -175z m100 -350 c-11 -19 -40 -43 -64 -54 -41 -20
-58 -21 -473 -21 l-431 0 -7 29 c-3 15 -20 41 -36 57 l-30 29 -235 3 c-203 3
-239 1 -269 -14 -35 -16 -65 -57 -65 -89 0 -15 -14 -16 -114 -13 -97 2 -119 6
-142 24 -44 33 -66 68 -71 118 l-6 46 979 2 979 3 3 -43 c2 -30 -3 -53 -18
-77z"/>
<path d="M3750 2917 c-107 -35 -203 -66 -212 -70 -21 -8 -24 -35 -4 -43 14 -5
387 105 427 126 23 13 22 44 -1 47 -8 1 -103 -26 -210 -60z"/>
<path d="M3925 2775 c-38 -13 -133 -43 -210 -67 -117 -37 -140 -47 -140 -63 0
-11 8 -21 17 -23 19 -4 426 122 440 136 13 13 -2 42 -21 41 -9 -1 -47 -12 -86
-24z"/>
<path d="M4074 1625 c-12 -31 7 -35 160 -35 153 0 181 6 169 36 -8 21 -321 20
-329 -1z"/>
<path d="M630 764 c-13 -33 -6 -44 28 -44 28 0 28 0 81 -217 78 -322 67 -293
116 -293 l42 0 133 255 c127 242 135 255 162 255 22 0 31 6 39 27 5 15 6 30 1
35 -5 5 -51 7 -103 6 l-94 -3 0 -30 c0 -24 5 -31 27 -35 l26 -5 -111 -214
-111 -213 -13 48 c-7 27 -29 117 -48 199 -20 83 -38 158 -41 168 -4 12 0 17
15 17 37 0 51 11 51 41 l0 29 -95 0 c-93 0 -96 -1 -105 -26z"/>
<path d="M1477 783 c-4 -3 -7 -17 -7 -30 0 -18 5 -23 26 -23 25 0 26 -2 21
-36 -4 -21 -19 -126 -34 -235 l-28 -199 -27 0 c-16 0 -28 -4 -28 -9 0 -5 -3
-16 -6 -25 -5 -14 6 -16 85 -16 90 0 91 0 91 25 0 20 -5 25 -25 25 -21 0 -25
4 -20 23 15 72 67 479 62 492 -5 11 -20 15 -55 15 -27 0 -52 -3 -55 -7z"/>
<path d="M1717 783 c-4 -3 -7 -17 -7 -30 0 -18 5 -23 25 -23 21 0 25 -4 20
-22 -2 -13 -16 -108 -31 -213 -32 -240 -31 -235 -59 -235 -21 0 -35 -17 -35
-41 0 -5 41 -9 90 -9 89 0 90 0 90 25 0 20 -5 25 -25 25 -14 0 -25 4 -25 8 0
4 16 119 35 256 20 136 33 251 30 256 -7 11 -98 14 -108 3z"/>
<path d="M2002 592 c-67 -24 -77 -34 -63 -60 11 -21 11 -21 54 -2 66 31 154
24 179 -14 4 -6 8 -26 8 -43 l0 -33 -68 0 c-87 0 -167 -24 -204 -60 -23 -24
-28 -37 -28 -77 0 -40 5 -54 26 -74 22 -20 36 -24 92 -24 59 0 73 4 115 32
l47 32 0 -29 c0 -30 1 -30 55 -30 52 0 55 1 55 25 0 20 -5 25 -26 25 -24 0
-26 3 -21 28 3 15 11 70 18 123 13 107 6 136 -42 171 -39 29 -131 33 -197 10z
m168 -226 c0 -54 -72 -106 -148 -106 -54 0 -74 18 -70 60 4 49 49 70 146 70
69 0 72 -1 72 -24z"/>
<path d="M2575 596 c-17 -7 -44 -28 -59 -47 l-28 -33 3 40 4 39 -57 3 c-56 3
-58 2 -58 -23 0 -20 5 -25 25 -25 29 0 29 7 10 -123 -25 -173 -23 -167 -49
-167 -22 0 -36 -16 -36 -41 0 -5 38 -9 85 -9 47 0 85 4 85 9 0 5 3 16 6 25 5
12 0 16 -20 16 -14 0 -26 4 -26 10 0 48 27 173 43 203 39 69 116 98 157 57 23
-23 25 -57 7 -180 -12 -80 -14 -85 -39 -88 -18 -2 -27 -10 -31 -28 -4 -24 -4
-24 84 -24 88 0 89 0 89 25 0 20 -5 25 -26 25 -23 0 -25 3 -20 27 3 16 8 53
11 83 10 83 23 116 61 150 41 35 85 39 114 10 24 -24 25 -54 5 -186 -22 -144
-25 -134 45 -134 57 0 60 1 60 25 0 20 -5 25 -25 25 -28 0 -28 0 -4 139 16 95
12 136 -17 170 -46 56 -147 51 -198 -9 -27 -33 -36 -37 -36 -17 0 47 -105 81
-165 53z"/>
<path d="M1210 575 c0 -20 5 -25 25 -25 24 0 25 -3 21 -32 -3 -18 -13 -83 -22
-145 -16 -109 -17 -112 -43 -115 -18 -2 -27 -10 -29 -25 -3 -22 -1 -23 81 -23
68 0 86 3 91 16 10 27 7 34 -19 34 -31 0 -31 0 -5 172 27 183 31 168 -40 168
-57 0 -60 -1 -60 -25z"/>
</g>
</svg>
